<mxfile host="app.diagrams.net" agent="Mozilla/5.0 (Windows NT 10.0; Win64; x64) AppleWebKit/537.36 (KHTML, like Gecko) Chrome/129.0.0.0 Safari/537.36" version="24.7.17">
  <diagram name="Page-1" id="HnpZUGuaxoBwDZ29-cJ9">
    <mxGraphModel dx="1290" dy="563" grid="1" gridSize="10" guides="1" tooltips="1" connect="1" arrows="1" fold="1" page="1" pageScale="1" pageWidth="850" pageHeight="1100" math="0" shadow="0">
      <root>
        <mxCell id="0" />
        <mxCell id="1" parent="0" />
        <mxCell id="oZfX0HAokzO_6hSReje8-1" value="User" style="swimlane;whiteSpace=wrap" vertex="1" parent="1">
          <mxGeometry x="180" y="128" width="544.5" height="1352" as="geometry" />
        </mxCell>
        <mxCell id="oZfX0HAokzO_6hSReje8-2" value="" style="ellipse;shape=startState;fillColor=#000000;strokeColor=#ff0000;" vertex="1" parent="oZfX0HAokzO_6hSReje8-1">
          <mxGeometry x="190" y="40" width="30" height="30" as="geometry" />
        </mxCell>
        <mxCell id="oZfX0HAokzO_6hSReje8-3" value="" style="edgeStyle=elbowEdgeStyle;elbow=horizontal;verticalAlign=bottom;endArrow=open;endSize=8;strokeColor=#FF0000;endFill=1;rounded=0" edge="1" parent="oZfX0HAokzO_6hSReje8-1" source="oZfX0HAokzO_6hSReje8-2" target="oZfX0HAokzO_6hSReje8-4">
          <mxGeometry x="100" y="40" as="geometry">
            <mxPoint x="115" y="110" as="targetPoint" />
          </mxGeometry>
        </mxCell>
        <mxCell id="oZfX0HAokzO_6hSReje8-4" value="Đăng nhập" style="" vertex="1" parent="oZfX0HAokzO_6hSReje8-1">
          <mxGeometry x="265" y="110" width="110" height="50" as="geometry" />
        </mxCell>
        <mxCell id="oZfX0HAokzO_6hSReje8-5" value="Nhập nội dung bài viết" style="" vertex="1" parent="oZfX0HAokzO_6hSReje8-1">
          <mxGeometry x="510" y="212" width="110" height="50" as="geometry" />
        </mxCell>
        <mxCell id="oZfX0HAokzO_6hSReje8-6" value="" style="endArrow=open;strokeColor=#FF0000;endFill=1;rounded=0" edge="1" parent="oZfX0HAokzO_6hSReje8-1" source="oZfX0HAokzO_6hSReje8-4" target="oZfX0HAokzO_6hSReje8-5">
          <mxGeometry relative="1" as="geometry" />
        </mxCell>
        <mxCell id="oZfX0HAokzO_6hSReje8-7" value="Xác nhận" style="" vertex="1" parent="oZfX0HAokzO_6hSReje8-1">
          <mxGeometry x="510" y="325" width="110" height="50" as="geometry" />
        </mxCell>
        <mxCell id="oZfX0HAokzO_6hSReje8-8" value="" style="endArrow=open;strokeColor=#FF0000;endFill=1;rounded=0" edge="1" parent="oZfX0HAokzO_6hSReje8-1" source="oZfX0HAokzO_6hSReje8-5" target="oZfX0HAokzO_6hSReje8-7">
          <mxGeometry relative="1" as="geometry" />
        </mxCell>
        <mxCell id="oZfX0HAokzO_6hSReje8-44" value="Tìm kiếm tag" style="" vertex="1" parent="oZfX0HAokzO_6hSReje8-1">
          <mxGeometry x="150" y="1042" width="110" height="50" as="geometry" />
        </mxCell>
        <mxCell id="oZfX0HAokzO_6hSReje8-45" value="" style="edgeStyle=elbowEdgeStyle;elbow=horizontal;verticalAlign=bottom;endArrow=open;endSize=8;strokeColor=#FF0000;endFill=1;rounded=0" edge="1" parent="oZfX0HAokzO_6hSReje8-1" source="oZfX0HAokzO_6hSReje8-2" target="oZfX0HAokzO_6hSReje8-44">
          <mxGeometry x="-50" y="-88" as="geometry">
            <mxPoint x="275" y="145" as="targetPoint" />
            <mxPoint x="230" y="65" as="sourcePoint" />
          </mxGeometry>
        </mxCell>
        <mxCell id="oZfX0HAokzO_6hSReje8-46" value="Chọn tag" style="" vertex="1" parent="oZfX0HAokzO_6hSReje8-1">
          <mxGeometry x="150" y="1137" width="110" height="50" as="geometry" />
        </mxCell>
        <mxCell id="oZfX0HAokzO_6hSReje8-47" value="" style="edgeStyle=elbowEdgeStyle;elbow=horizontal;verticalAlign=bottom;endArrow=open;endSize=8;strokeColor=#FF0000;endFill=1;rounded=0" edge="1" parent="oZfX0HAokzO_6hSReje8-1" source="oZfX0HAokzO_6hSReje8-44" target="oZfX0HAokzO_6hSReje8-46">
          <mxGeometry x="-200" y="-216" as="geometry">
            <mxPoint x="200" y="147" as="targetPoint" />
            <mxPoint x="205" y="1142" as="sourcePoint" />
            <Array as="points">
              <mxPoint x="200" y="1162" />
            </Array>
          </mxGeometry>
        </mxCell>
        <mxCell id="oZfX0HAokzO_6hSReje8-48" value="Chọn bài viết" style="" vertex="1" parent="oZfX0HAokzO_6hSReje8-1">
          <mxGeometry x="265" y="222" width="110" height="50" as="geometry" />
        </mxCell>
        <mxCell id="oZfX0HAokzO_6hSReje8-49" value="" style="endArrow=open;strokeColor=#FF0000;endFill=1;rounded=0" edge="1" parent="oZfX0HAokzO_6hSReje8-1" source="oZfX0HAokzO_6hSReje8-4" target="oZfX0HAokzO_6hSReje8-48">
          <mxGeometry relative="1" as="geometry">
            <mxPoint x="385" y="168" as="sourcePoint" />
            <mxPoint x="520" y="224" as="targetPoint" />
          </mxGeometry>
        </mxCell>
        <mxCell id="oZfX0HAokzO_6hSReje8-50" value="Chọn menu bài viết" style="" vertex="1" parent="oZfX0HAokzO_6hSReje8-1">
          <mxGeometry x="265" y="312" width="110" height="50" as="geometry" />
        </mxCell>
        <mxCell id="oZfX0HAokzO_6hSReje8-51" value="" style="endArrow=open;strokeColor=#FF0000;endFill=1;rounded=0" edge="1" parent="oZfX0HAokzO_6hSReje8-1" source="oZfX0HAokzO_6hSReje8-48" target="oZfX0HAokzO_6hSReje8-50">
          <mxGeometry relative="1" as="geometry">
            <mxPoint x="330" y="170" as="sourcePoint" />
            <mxPoint x="330" y="232" as="targetPoint" />
          </mxGeometry>
        </mxCell>
        <mxCell id="oZfX0HAokzO_6hSReje8-53" value="Xóa bài viết" style="" vertex="1" parent="oZfX0HAokzO_6hSReje8-1">
          <mxGeometry x="480" y="422" width="110" height="50" as="geometry" />
        </mxCell>
        <mxCell id="oZfX0HAokzO_6hSReje8-52" value="Chỉnh sửa bài viết" style="" vertex="1" parent="oZfX0HAokzO_6hSReje8-1">
          <mxGeometry x="265" y="422" width="110" height="50" as="geometry" />
        </mxCell>
        <mxCell id="oZfX0HAokzO_6hSReje8-54" value="" style="endArrow=open;strokeColor=#FF0000;endFill=1;rounded=0" edge="1" parent="oZfX0HAokzO_6hSReje8-1" source="oZfX0HAokzO_6hSReje8-50" target="oZfX0HAokzO_6hSReje8-52">
          <mxGeometry relative="1" as="geometry">
            <mxPoint x="330" y="282" as="sourcePoint" />
            <mxPoint x="330" y="322" as="targetPoint" />
          </mxGeometry>
        </mxCell>
        <mxCell id="oZfX0HAokzO_6hSReje8-55" value="" style="endArrow=open;strokeColor=#FF0000;endFill=1;rounded=0" edge="1" parent="oZfX0HAokzO_6hSReje8-1" source="oZfX0HAokzO_6hSReje8-50" target="oZfX0HAokzO_6hSReje8-53">
          <mxGeometry relative="1" as="geometry">
            <mxPoint x="340" y="292" as="sourcePoint" />
            <mxPoint x="340" y="332" as="targetPoint" />
          </mxGeometry>
        </mxCell>
        <mxCell id="oZfX0HAokzO_6hSReje8-65" value="Nhập nội dung&#xa; chỉnh sửa" style="" vertex="1" parent="oZfX0HAokzO_6hSReje8-1">
          <mxGeometry x="265" y="499.5" width="110" height="50" as="geometry" />
        </mxCell>
        <mxCell id="oZfX0HAokzO_6hSReje8-66" value="Xác nhận" style="" vertex="1" parent="oZfX0HAokzO_6hSReje8-1">
          <mxGeometry x="265" y="682" width="110" height="50" as="geometry" />
        </mxCell>
        <mxCell id="oZfX0HAokzO_6hSReje8-64" value="" style="endArrow=open;strokeColor=#FF0000;endFill=1;rounded=0" edge="1" parent="oZfX0HAokzO_6hSReje8-1" source="oZfX0HAokzO_6hSReje8-52" target="oZfX0HAokzO_6hSReje8-65">
          <mxGeometry relative="1" as="geometry">
            <mxPoint x="349" y="372" as="sourcePoint" />
            <mxPoint x="396" y="432" as="targetPoint" />
          </mxGeometry>
        </mxCell>
        <mxCell id="oZfX0HAokzO_6hSReje8-67" value="" style="endArrow=open;strokeColor=#FF0000;endFill=1;rounded=0" edge="1" parent="oZfX0HAokzO_6hSReje8-1" source="oZfX0HAokzO_6hSReje8-65" target="oZfX0HAokzO_6hSReje8-66">
          <mxGeometry relative="1" as="geometry">
            <mxPoint x="415" y="482" as="sourcePoint" />
            <mxPoint x="415" y="510" as="targetPoint" />
          </mxGeometry>
        </mxCell>
        <mxCell id="oZfX0HAokzO_6hSReje8-15" value="Hệ thống" style="swimlane;whiteSpace=wrap" vertex="1" parent="1">
          <mxGeometry x="724.5" y="128" width="545.5" height="1352" as="geometry" />
        </mxCell>
        <mxCell id="oZfX0HAokzO_6hSReje8-18" value="Kiểm tra nội dung" style="rhombus;fillColor=#ffffc0;strokeColor=#ff0000;" vertex="1" parent="oZfX0HAokzO_6hSReje8-15">
          <mxGeometry x="112.75" y="307.5" width="180" height="85" as="geometry" />
        </mxCell>
        <mxCell id="oZfX0HAokzO_6hSReje8-22" value="" style="ellipse;shape=endState;fillColor=#000000;strokeColor=#ff0000" vertex="1" parent="oZfX0HAokzO_6hSReje8-15">
          <mxGeometry x="187.74999999999997" y="1062" width="30" height="30" as="geometry" />
        </mxCell>
        <mxCell id="oZfX0HAokzO_6hSReje8-26" value="Thông báo thành công" style="" vertex="1" parent="oZfX0HAokzO_6hSReje8-15">
          <mxGeometry x="20.5" y="572" width="184.5" height="50" as="geometry" />
        </mxCell>
        <mxCell id="oZfX0HAokzO_6hSReje8-28" value="Kiểm tra quyền sửa" style="rhombus;fillColor=#ffffc0;strokeColor=#ff0000;" vertex="1" parent="oZfX0HAokzO_6hSReje8-15">
          <mxGeometry x="117.25000000000001" y="662" width="180" height="85" as="geometry" />
        </mxCell>
        <mxCell id="oZfX0HAokzO_6hSReje8-31" value="" style="endArrow=open;strokeColor=#FF0000;endFill=1;rounded=0;" edge="1" parent="oZfX0HAokzO_6hSReje8-15" source="oZfX0HAokzO_6hSReje8-28" target="oZfX0HAokzO_6hSReje8-18">
          <mxGeometry relative="1" as="geometry">
            <mxPoint x="289" y="465" as="sourcePoint" />
            <mxPoint x="-384.5" y="842" as="targetPoint" />
            <Array as="points">
              <mxPoint x="465.5" y="705" />
              <mxPoint x="465.5" y="352" />
            </Array>
          </mxGeometry>
        </mxCell>
        <mxCell id="oZfX0HAokzO_6hSReje8-32" value="Đúng" style="edgeLabel;html=1;align=center;verticalAlign=middle;resizable=0;points=[];" vertex="1" connectable="0" parent="oZfX0HAokzO_6hSReje8-31">
          <mxGeometry x="-0.4814" relative="1" as="geometry">
            <mxPoint as="offset" />
          </mxGeometry>
        </mxCell>
        <mxCell id="oZfX0HAokzO_6hSReje8-56" value="" style="endArrow=open;strokeColor=#FF0000;endFill=1;rounded=0;" edge="1" parent="oZfX0HAokzO_6hSReje8-15" source="oZfX0HAokzO_6hSReje8-18" target="oZfX0HAokzO_6hSReje8-89">
          <mxGeometry relative="1" as="geometry">
            <mxPoint x="199" y="767" as="sourcePoint" />
            <mxPoint x="200" y="822" as="targetPoint" />
            <Array as="points" />
          </mxGeometry>
        </mxCell>
        <mxCell id="oZfX0HAokzO_6hSReje8-57" value="Đúng" style="edgeLabel;html=1;align=center;verticalAlign=middle;resizable=0;points=[];" vertex="1" connectable="0" parent="oZfX0HAokzO_6hSReje8-56">
          <mxGeometry x="-0.4814" relative="1" as="geometry">
            <mxPoint as="offset" />
          </mxGeometry>
        </mxCell>
        <mxCell id="oZfX0HAokzO_6hSReje8-58" value="Thống báo thất bại do có &#xa;nội dung nhạy cảm" style="" vertex="1" parent="oZfX0HAokzO_6hSReje8-15">
          <mxGeometry x="275.5" y="412" width="184.5" height="50" as="geometry" />
        </mxCell>
        <mxCell id="oZfX0HAokzO_6hSReje8-60" value="" style="endArrow=open;strokeColor=#FF0000;endFill=1;rounded=0;" edge="1" parent="oZfX0HAokzO_6hSReje8-15" source="oZfX0HAokzO_6hSReje8-18" target="oZfX0HAokzO_6hSReje8-58">
          <mxGeometry relative="1" as="geometry">
            <mxPoint x="194" y="394" as="sourcePoint" />
            <mxPoint x="136" y="502" as="targetPoint" />
            <Array as="points" />
          </mxGeometry>
        </mxCell>
        <mxCell id="oZfX0HAokzO_6hSReje8-61" value="Sai" style="edgeLabel;html=1;align=center;verticalAlign=middle;resizable=0;points=[];" vertex="1" connectable="0" parent="oZfX0HAokzO_6hSReje8-60">
          <mxGeometry x="-0.4814" relative="1" as="geometry">
            <mxPoint as="offset" />
          </mxGeometry>
        </mxCell>
        <mxCell id="oZfX0HAokzO_6hSReje8-70" value="Bạn không có quyền sửa" style="" vertex="1" parent="oZfX0HAokzO_6hSReje8-15">
          <mxGeometry x="112.75" y="779.5" width="184.5" height="50" as="geometry" />
        </mxCell>
        <mxCell id="oZfX0HAokzO_6hSReje8-68" value="" style="endArrow=open;strokeColor=#FF0000;endFill=1;rounded=0;" edge="1" parent="oZfX0HAokzO_6hSReje8-15" source="oZfX0HAokzO_6hSReje8-28" target="oZfX0HAokzO_6hSReje8-70">
          <mxGeometry relative="1" as="geometry">
            <mxPoint x="232" y="394" as="sourcePoint" />
            <mxPoint x="293" y="502" as="targetPoint" />
            <Array as="points" />
          </mxGeometry>
        </mxCell>
        <mxCell id="oZfX0HAokzO_6hSReje8-69" value="Sai" style="edgeLabel;html=1;align=center;verticalAlign=middle;resizable=0;points=[];" vertex="1" connectable="0" parent="oZfX0HAokzO_6hSReje8-68">
          <mxGeometry x="-0.4814" relative="1" as="geometry">
            <mxPoint as="offset" />
          </mxGeometry>
        </mxCell>
        <mxCell id="oZfX0HAokzO_6hSReje8-71" value="" style="endArrow=open;strokeColor=#FF0000;endFill=1;rounded=0;exitX=0.206;exitY=1.012;exitDx=0;exitDy=0;exitPerimeter=0;" edge="1" parent="oZfX0HAokzO_6hSReje8-15" source="oZfX0HAokzO_6hSReje8-26" target="oZfX0HAokzO_6hSReje8-22">
          <mxGeometry relative="1" as="geometry">
            <mxPoint x="-184.5" y="717" as="sourcePoint" />
            <mxPoint x="128.5" y="715" as="targetPoint" />
            <Array as="points">
              <mxPoint x="55.5" y="1077" />
            </Array>
          </mxGeometry>
        </mxCell>
        <mxCell id="oZfX0HAokzO_6hSReje8-75" value="Kiểm tra quyền xóa" style="rhombus;fillColor=#ffffc0;strokeColor=#ff0000;" vertex="1" parent="oZfX0HAokzO_6hSReje8-15">
          <mxGeometry x="112.75" y="862" width="180" height="85" as="geometry" />
        </mxCell>
        <mxCell id="oZfX0HAokzO_6hSReje8-76" value="Bạn không có quyền xóa" style="" vertex="1" parent="oZfX0HAokzO_6hSReje8-15">
          <mxGeometry x="108.25" y="979.5" width="184.5" height="50" as="geometry" />
        </mxCell>
        <mxCell id="oZfX0HAokzO_6hSReje8-77" value="" style="endArrow=open;strokeColor=#FF0000;endFill=1;rounded=0;" edge="1" parent="oZfX0HAokzO_6hSReje8-15" source="oZfX0HAokzO_6hSReje8-75" target="oZfX0HAokzO_6hSReje8-76">
          <mxGeometry relative="1" as="geometry">
            <mxPoint x="227.5" y="594" as="sourcePoint" />
            <mxPoint x="288.5" y="702" as="targetPoint" />
            <Array as="points" />
          </mxGeometry>
        </mxCell>
        <mxCell id="oZfX0HAokzO_6hSReje8-78" value="Sai" style="edgeLabel;html=1;align=center;verticalAlign=middle;resizable=0;points=[];" vertex="1" connectable="0" parent="oZfX0HAokzO_6hSReje8-77">
          <mxGeometry x="-0.4814" relative="1" as="geometry">
            <mxPoint as="offset" />
          </mxGeometry>
        </mxCell>
        <mxCell id="oZfX0HAokzO_6hSReje8-80" value="" style="edgeStyle=elbowEdgeStyle;elbow=horizontal;verticalAlign=bottom;endArrow=open;endSize=8;strokeColor=#FF0000;endFill=1;rounded=0" edge="1" parent="oZfX0HAokzO_6hSReje8-15" source="oZfX0HAokzO_6hSReje8-76" target="oZfX0HAokzO_6hSReje8-22">
          <mxGeometry x="-924.5" y="-344" as="geometry">
            <mxPoint x="-559.5" y="467" as="targetPoint" />
            <mxPoint x="-559.5" y="422" as="sourcePoint" />
          </mxGeometry>
        </mxCell>
        <mxCell id="oZfX0HAokzO_6hSReje8-83" value="Lọc và trả về danh sách blog" style="" vertex="1" parent="oZfX0HAokzO_6hSReje8-15">
          <mxGeometry x="95.5" y="1142" width="184.5" height="50" as="geometry" />
        </mxCell>
        <mxCell id="oZfX0HAokzO_6hSReje8-87" value="" style="edgeStyle=elbowEdgeStyle;elbow=horizontal;verticalAlign=bottom;endArrow=open;endSize=8;strokeColor=#FF0000;endFill=1;rounded=0" edge="1" parent="oZfX0HAokzO_6hSReje8-15" source="oZfX0HAokzO_6hSReje8-83" target="oZfX0HAokzO_6hSReje8-22">
          <mxGeometry x="-924.5" y="-344" as="geometry">
            <mxPoint x="105.5" y="1172" as="targetPoint" />
            <mxPoint x="-384.5" y="1172" as="sourcePoint" />
            <Array as="points" />
          </mxGeometry>
        </mxCell>
        <mxCell id="oZfX0HAokzO_6hSReje8-89" value="Tạo blog và gắn tag" style="" vertex="1" parent="oZfX0HAokzO_6hSReje8-15">
          <mxGeometry x="20.5" y="462" width="184.5" height="50" as="geometry" />
        </mxCell>
        <mxCell id="oZfX0HAokzO_6hSReje8-91" value="" style="endArrow=open;strokeColor=#FF0000;endFill=1;rounded=0" edge="1" parent="oZfX0HAokzO_6hSReje8-15" source="oZfX0HAokzO_6hSReje8-89" target="oZfX0HAokzO_6hSReje8-26">
          <mxGeometry relative="1" as="geometry">
            <mxPoint x="-275.5" y="372" as="sourcePoint" />
            <mxPoint x="-158.5" y="432" as="targetPoint" />
          </mxGeometry>
        </mxCell>
        <mxCell id="oZfX0HAokzO_6hSReje8-36" value="" style="endArrow=open;strokeColor=#FF0000;endFill=1;rounded=0" edge="1" parent="1" source="oZfX0HAokzO_6hSReje8-7" target="oZfX0HAokzO_6hSReje8-18">
          <mxGeometry relative="1" as="geometry">
            <mxPoint x="859.5" y="478" as="targetPoint" />
          </mxGeometry>
        </mxCell>
        <mxCell id="oZfX0HAokzO_6hSReje8-29" value="" style="endArrow=open;strokeColor=#FF0000;endFill=1;rounded=0" edge="1" parent="1" source="oZfX0HAokzO_6hSReje8-66" target="oZfX0HAokzO_6hSReje8-28">
          <mxGeometry relative="1" as="geometry">
            <mxPoint x="912.2435714285712" y="780" as="sourcePoint" />
            <mxPoint x="830" y="783" as="targetPoint" />
            <Array as="points" />
          </mxGeometry>
        </mxCell>
        <mxCell id="oZfX0HAokzO_6hSReje8-79" value="" style="endArrow=open;strokeColor=#FF0000;endFill=1;rounded=0" edge="1" parent="1" target="oZfX0HAokzO_6hSReje8-75">
          <mxGeometry relative="1" as="geometry">
            <mxPoint x="600" y="600" as="sourcePoint" />
            <mxPoint x="485" y="820" as="targetPoint" />
            <Array as="points">
              <mxPoint x="600" y="1030" />
            </Array>
          </mxGeometry>
        </mxCell>
        <mxCell id="oZfX0HAokzO_6hSReje8-81" value="" style="edgeStyle=elbowEdgeStyle;elbow=horizontal;verticalAlign=bottom;endArrow=open;endSize=8;strokeColor=#FF0000;endFill=1;rounded=0" edge="1" parent="1" source="oZfX0HAokzO_6hSReje8-70">
          <mxGeometry x="-924.5" y="-344" as="geometry">
            <mxPoint x="937.5" y="1200" as="targetPoint" />
            <mxPoint x="937.5" y="1168" as="sourcePoint" />
            <Array as="points">
              <mxPoint x="1090" y="1200" />
            </Array>
          </mxGeometry>
        </mxCell>
        <mxCell id="oZfX0HAokzO_6hSReje8-85" value="" style="edgeStyle=elbowEdgeStyle;elbow=horizontal;verticalAlign=bottom;endArrow=open;endSize=8;strokeColor=#FF0000;endFill=1;rounded=0" edge="1" parent="1" source="oZfX0HAokzO_6hSReje8-46" target="oZfX0HAokzO_6hSReje8-83">
          <mxGeometry x="-200" y="-216" as="geometry">
            <mxPoint x="285" y="1275" as="targetPoint" />
            <mxPoint x="285" y="1230" as="sourcePoint" />
            <Array as="points">
              <mxPoint x="390" y="1280" />
            </Array>
          </mxGeometry>
        </mxCell>
      </root>
    </mxGraphModel>
  </diagram>
</mxfile>
